<svg width="51" height="50" viewBox="0 0 51 50" fill="none" xmlns="http://www.w3.org/2000/svg">
<g clip-path="url(#clip0_2487_5088)">
<path d="M25.5 16.6666C22.7386 16.6666 20.5 18.9052 20.5 21.6666C20.5 24.4281 22.7386 26.6666 25.5 26.6666C28.2614 26.6666 30.5 24.4281 30.5 21.6666C30.5 18.9052 28.2614 16.6666 25.5 16.6666Z" fill="white"/>
<path fill-rule="evenodd" clip-rule="evenodd" d="M30.5 6.66627L27.1667 6.6663V0H23.8333V6.66633H20.4997C9.45417 6.66643 0.500031 15.6206 0.5 26.6662C0.499969 37.7117 9.45423 46.666 20.4999 46.666H30.5001C30.9353 46.666 31.3675 46.6523 31.7961 46.6247L45.096 49.9497C45.664 50.0917 46.2647 49.9253 46.6787 49.5113C47.0927 49.0973 47.259 48.4967 47.117 47.9287L45.1937 40.2347C48.486 36.6707 50.5 31.9024 50.5 26.6662C50.5 15.6205 41.5457 6.66617 30.5 6.66627ZM17.1667 21.6667C17.1667 17.0643 20.8976 13.3333 25.5 13.3333C30.1024 13.3333 33.8333 17.0643 33.8333 21.6667C33.8333 26.269 30.1024 30 25.5 30C20.8976 30 17.1667 26.269 17.1667 21.6667ZM25.4999 40C21.9543 40 18.6919 38.7677 16.1242 36.7093L18.2091 34.1087C20.2067 35.71 22.7393 36.6667 25.4999 36.6667C28.2605 36.6667 30.7931 35.71 32.7908 34.1087L34.8757 36.7093C32.308 38.7677 29.0456 40 25.4999 40Z" fill="white"/>
</g>
<defs>
<clipPath id="clip0_2487_5088">
<rect width="50" height="50" fill="white" transform="translate(0.5)"/>
</clipPath>
</defs>
</svg>
