<svg width="50" height="50" viewBox="0 0 50 50" fill="none" xmlns="http://www.w3.org/2000/svg">
<g clip-path="url(#clip0_2487_5102)">
<path d="M4.16666 12.5C4.16666 9.36454 5.79166 6.08329 8.33332 4.16663C8.33332 5.92704 9.77082 8.33329 12.5 8.33329C15.9521 8.33329 18.75 11.1312 18.75 14.5833C18.75 15.3875 18.5833 16.15 18.3083 16.8541C19.85 18.0916 21.3833 19.3333 22.8708 20.625L18.5417 24.9583C17.25 23.4666 16.0125 21.9291 14.7771 20.3916C14.0687 20.6666 13.3062 20.8333 12.5 20.8333C7.89582 20.8333 4.16666 17.1041 4.16666 12.5ZM29.4833 26.7666L32.275 23.975C33.5396 24.6083 34.9479 25 36.4583 25C41.6354 25 45.8333 20.802 45.8333 15.625C45.8333 14.1145 45.4417 12.7083 44.8062 11.4437L37.5 18.75L33.3333 14.5833L40.6396 7.27704C39.375 6.64163 37.9687 6.24996 36.4583 6.24996C31.2812 6.24996 27.0833 10.4479 27.0833 15.625C27.0833 17.1354 27.475 18.5416 28.1104 19.8062L6.24999 41.6666L10.4167 45.8333L24.6833 31.5666C28.6104 35.5833 32.7542 39.3854 37.1354 42.9208L40.1042 45.3125L43.2292 42.1875L40.8333 39.2187C37.3021 34.8375 33.5 30.6937 29.4833 26.7666Z" fill="white"/>
</g>
<defs>
<clipPath id="clip0_2487_5102">
<rect width="50" height="50" fill="white"/>
</clipPath>
</defs>
</svg>
