<svg width="50" height="50" viewBox="0 0 50 50" fill="none" xmlns="http://www.w3.org/2000/svg">
<g clip-path="url(#clip0_2486_5066)">
<path d="M40.625 15.625H29.6875V18.75H40.625V15.625Z" fill="white"/>
<path d="M40.625 23.4375H29.6875V26.5625H40.625V23.4375Z" fill="white"/>
<path d="M40.625 31.25H29.6875V34.375H40.625V31.25Z" fill="white"/>
<path d="M20.3125 15.625H9.375V18.75H20.3125V15.625Z" fill="white"/>
<path d="M20.3125 23.4375H9.375V26.5625H20.3125V23.4375Z" fill="white"/>
<path d="M20.3125 31.25H9.375V34.375H20.3125V31.25Z" fill="white"/>
<path d="M43.75 7.8125H6.25C5.42145 7.81333 4.62708 8.14283 4.0412 8.72871C3.45533 9.31458 3.12583 10.109 3.125 10.9375V39.0625C3.12583 39.891 3.45533 40.6854 4.0412 41.2713C4.62708 41.8572 5.42145 42.1867 6.25 42.1875H43.75C44.5785 42.1867 45.3729 41.8572 45.9588 41.2713C46.5447 40.6854 46.8742 39.891 46.875 39.0625V10.9375C46.8742 10.109 46.5447 9.31458 45.9588 8.72871C45.3729 8.14283 44.5785 7.81333 43.75 7.8125ZM6.25 10.9375H23.4375V39.0625H6.25V10.9375ZM26.5625 39.0625V10.9375H43.75V39.0625H26.5625Z" fill="white"/>
</g>
<defs>
<clipPath id="clip0_2486_5066">
<rect width="50" height="50" fill="white"/>
</clipPath>
</defs>
</svg>
